<?xml version="1.0" encoding="utf-8"?>
<!-- Generator: Adobe Illustrator 21.0.2, SVG Export Plug-In . SVG Version: 6.00 Build 0)  -->
<svg version="1.1" xmlns="http://www.w3.org/2000/svg" xmlns:xlink="http://www.w3.org/1999/xlink" x="0px" y="0px"
	 viewBox="0 0 269.5 269" style="enable-background:new 0 0 269.5 269;" xml:space="preserve">
<style type="text/css">
	.st0{fill:#5B3192;}
	.st1{fill:#2892C9;}
	.st2{fill:#F3A11E;}
	.st3{fill:#88183C;}
	.st4{fill:none;stroke:#FFE152;stroke-width:0.78;}
	.st5{fill:#EE2924;}
	.st6{fill:#E875A0;}
	.st7{fill:#6FC9C1;}
</style>
<g id="Layer_2">
	
		<rect x="63.9" y="34.1" transform="matrix(0.7071 -0.7071 0.7071 0.7071 -33.0852 124.9305)" class="st0" width="140.7" height="136.5"/>
	
		<rect x="128.6" y="143.9" transform="matrix(0.7071 -0.7071 0.7071 0.7071 -59.8701 189.5933)" class="st1" width="140.7" height="46.4"/>
	<rect x="47" y="99.4" transform="matrix(0.7071 -0.7071 0.7071 0.7071 -98.3662 97.8872)" class="st2" width="44" height="136.5"/>
	
		<rect x="111.7" y="209.2" transform="matrix(0.7071 -0.7071 0.7071 0.7071 -125.1545 162.5626)" class="st3" width="44" height="46.4"/>
</g>
<g id="Layer_1">
	<line class="st4" x1="113.1" y1="166.1" x2="150.9" y2="128.9"/>
	<line class="st4" x1="114.6" y1="128.5" x2="151.3" y2="165.8"/>
	<path class="st5" d="M173.9,141.2l-3.3,3.2l1.5,1.5l24.3-23.7c6.2-6,22.3-20.4,11.6-31.3c-5.7-5.8-14.1-2.1-18,0.2
		c-1.4,0.8-1,0.3-2.3,1.4l0.8-1.3c3.5-4.3,7-11.9,0-18.2c-7.4-6.6-19.7,1.5-25.4,7l-29,28.3l1.5,1.5l3.8-3.7c0,0,1.4-0.5,1.9,0.1
		l32.5,33.3C174.4,140.5,173.9,141.2,173.9,141.2z M176.5,104.7c2.6-2.3,7.6-4,12.6,0.8l2.4,2.5c6.4,7,5.4,10.7,2,14l-1.7,1.8
		c-1.8,1-3.6-1-3.6-1l-15-15.4l-1.5-1.5l-14.1-14.4c0,0-0.5-1.7,0.2-2.3c2.9-2.7,7.1-7.7,13.9-1.3l1.9,2c7.5,6.6,3.8,10.4,1.7,12.5
		l-0.6,0.5c0,0,0,0.7,0.4,0.9c0.4,0.3,0.4,0.9,0.8,0.5"/>
	<path class="st5" d="M96.3,64.3l-2.8,2.8L92,65.6L114.2,44l1.5,1.5l-1.7,1.6c0,0-0.4,0.8,0.1,1.5l15.1,15.5l6.2-6l-15.1-15.4
		c-0.8-0.7-1.7-0.1-1.7-0.1l-1.6,1.5l-1.5-1.5l22.2-21.7l1.5,1.5l-3.2,3.2c0,0-0.6,1.2,0,1.8l32.5,33.3c0,0,1.2,1,2.1,0l3-3l1.5,1.5
		L153,80.7l-1.5-1.5l1.8-1.7c0,0,0.3-0.6-0.2-1.4l-16.2-16.6l-6.2,6L147,82.3c0.8,0.8,1.3,0.1,1.3,0.1l1.7-1.7l1.5,1.5l-22.2,21.6
		l-1.5-1.5l2.9-2.8c0,0,1.1-1.5,0.2-2.2L98.8,64.3C98.8,64.3,97.3,63.1,96.3,64.3z"/>
	<path class="st5" d="M105.9,119.6L93,106.4l7.2-7c11.3-11,9.2-20.6,3.9-26c-5.2-5.3-14.7-7.5-26,3.5l-27.9,27.3l1.5,1.5l3.5-3.4
		c0,0,1.7-1.1,3.2,0.4l31.8,32.6c0,0,0.5,1.1-0.3,1.8l-3,3l1.5,1.5l24.7-24.1l-1.5-1.5l-3.9,3.8
		C107.4,120.2,105.9,119.6,105.9,119.6z M72.6,85.6l0.9-0.8c3.9-2.2,8.9,1,10.9,3l1.7,1.8c5.1,4.7,6.9,9.8,4.6,12l-1.3,1.2
		L72.6,85.6z"/>
	<g>
		<path class="st6" d="M166.9,218.8l-0.8-0.8l3.4-3.4l-18.7-18.6l-3.2,3.2l-0.8-0.8l6-6c2-2,3.7-4.3,5.5-6.5l20,19.9l3.1-3.1
			l0.8,0.8L166.9,218.8z"/>
		<path class="st6" d="M181.8,177.8c1.1,1.1,2.2,2.4,0.7,3.9c-1.5,1.5-2.8,0.5-3.9-0.7l-4.9-4.9c-1-1-1.7-2.1-0.3-3.5
			c1.4-1.4,2.5-0.7,3.5,0.3L181.8,177.8z M179.4,185.8c-2.9,3.7-5.4,9.3-2,12.8c2.6,2.6,7.5,3.4,16.5-5.5c8.9-9,8-13.9,5.4-16.5
			c-1.7-1.7-4-1.9-6.3-1.4c-2.3,0.6-4.6,2-6.5,3.4l-0.4-0.4c3-3.7,4.9-8.2,1.7-11.5c-3.3-3.3-9.3-0.8-15.2,5.2
			c-5.9,5.9-8.4,12-5.1,15.2c1.6,1.6,3.5,2,5.5,1.5c2-0.5,4.1-1.8,5.9-3.2L179.4,185.8z M192.1,187.8c2.2,2.2,2.2,3.4,1,4.5
			c-1.2,1.2-2.3,1.2-4.5-1l-5.2-5.1c-1.5-1.5-1.1-2.9-0.2-3.7c0.9-0.9,2.2-1.2,3.7,0.2L192.1,187.8z"/>
		<path class="st6" d="M198.2,154.9c-1-1-3.5-3.3-1.8-5.1c1.3-1.3,2.8-0.4,4,0.8l4.5,4.5c2.3,2.2,2.4,4,1.2,5.1
			c-0.9,0.9-1.9,0.8-2.6,0.1L198.2,154.9z M211.6,161.5c5.6,5.6,4.4,7.9,2.1,10.2c-0.4,0.4-2.6,2.3-2.9,2c-0.4-0.4,1.9-3.5-0.2-5.6
			c-1.8-1.8-4.4-1.2-6.5,0.9c-2.2,2.2-3,4.7-1,6.7c3,3,8.5-0.3,11.4-3.2c4.2-4.2,6.3-7.8,6.9-12.2c0.7-5-1.3-8.7-4.4-11.8
			c-6.7-6.6-15.9-5-21.9,1.1c-5.2,5.2-8.8,11.9-3.7,17c3.8,3.8,9.2,2.6,13.6-1.8c1.8-1.8,2.8-4,3.5-6.3L211.6,161.5z"/>
		<path class="st6" d="M221.6,131.9c-1-1-3.5-3.3-1.8-5.1c1.3-1.3,2.8-0.4,4,0.8l4.5,4.5c2.3,2.2,2.4,4,1.2,5.1
			c-0.9,0.9-1.9,0.8-2.6,0.1L221.6,131.9z M235,138.4c5.6,5.6,4.4,7.9,2.1,10.2c-0.4,0.4-2.6,2.3-2.9,2c-0.4-0.4,1.9-3.5-0.2-5.6
			c-1.8-1.8-4.4-1.2-6.5,0.9c-2.2,2.2-3,4.7-1,6.7c3,3,8.5-0.3,11.4-3.2c4.2-4.2,6.3-7.8,6.9-12.2c0.7-5-1.3-8.7-4.4-11.8
			c-6.7-6.6-15.9-5-21.9,1.1c-5.2,5.2-8.8,11.9-3.7,17c3.8,3.8,9.2,2.6,13.6-1.8c1.8-1.8,2.8-4,3.5-6.3L235,138.4z"/>
	</g>
	<g>
		<path class="st7" d="M14,133.7c1-0.9,2-1.8,2.9-2.7c0.8-0.8,2-2.2,3.9-4.3l0.8,0.8c-2.2,6-1.1,10.9,1.5,13.6
			c1.9,1.9,3.6,2.2,4.9,0.8c1.5-1.5,0.6-3.5-0.8-7.1c-2.6-6.9-3.2-11.1,0.5-14.8c4-4,9.3-3.7,13.2,0.2c1.5,1.4,2.4,3.1,3,5.3
			l4.2,1.9l0.6,0.6c-1,1-1.6,1.5-1.7,1.7c-0.7,0.7-2.3,2.3-4.5,5l-0.8-0.8c1.8-5.6,1.1-10.1-1.3-12.4c-1.7-1.7-3.4-1.9-4.6-0.7
			c-1.6,1.6-0.4,4,1.4,8.9c2.3,6.3,2.6,10.4-0.7,13.6c-3.8,3.9-9.2,3.7-13.6-0.7c-1.9-1.9-2.9-3.9-3.8-6.3l-4.4-1.9L14,133.7z"/>
		<path class="st7" d="M31.6,148.4l2.5,2.4L51.8,133l-2.5-2.4l0.7-0.8l12.8,12.7l-0.7,0.8l-2.5-2.4l-17.7,17.9l2.5,2.4l-0.8,0.8
			l-12.8-12.7L31.6,148.4z"/>
		<path class="st7" d="M51.7,168.5l-0.8,0.8l-6.4-6.4l0.8-0.8c0.1,0.1,0.1,0.1,0.2,0.2c2.1,2.1,3,2,4.7,0.3l15.6-15.8l-2.7-2.7
			l0.8-0.8l10.6,10.5L71.5,172l7.6-7.6c1.7-1.7,1.7-2.6-0.4-4.7c-0.1-0.1-0.1-0.1-0.2-0.2l0.8-0.8l6.4,6.4l-0.8,0.8
			c-0.1-0.1-0.1-0.1-0.2-0.2c-2.1-2.1-3-2-4.7-0.3l-16.4,16.5l-4.3-4.3l4.2-26.6l-12.5,12.6C49.4,165.4,49.5,166.2,51.7,168.5z"/>
		<path class="st7" d="M95.8,188.2c2.4-4.9,2.2-9-0.3-11.5c-3.2-3.1-6.1-0.4-12.7,6.2c-5.4,5.5-7.6,8.6-4.3,11.8
			c3,3,7.2,3.1,11.3,0.1l0.9,0.9c-4.9,4.1-10.4,3.6-15.6-1.5c-6.3-6.2-6.1-15-0.5-20.6c2.6-2.6,6.4-4.2,9.9-4.3
			c3.8,0,7.7,1.6,10.6,4.4c2,2,3,3.8,3.7,6.7l3.9,0.9l0.8,0.8l-6.9,7L95.8,188.2z"/>
		<path class="st7" d="M116.6,208.7l-0.8-0.8c3.2-5.3,2.9-9-0.8-12.6l-1.1-1.1l-8.3,8.4c0,0,0.1,0.1,0.1,0.1
			c2.2,2.2,4.6,2.2,7.5-0.2l0.8,0.8l-8.5,8.5l-0.8-0.8c2.4-3,2.4-5.4,0.2-7.6c0,0-0.1-0.1-0.1-0.1l-8.6,8.7l1.5,1.5
			c3.5,3.4,7.7,3.3,13.3,0l0.8,0.8l-7.4,7.5l-19.3-19.1l0.8-0.8l2.1,2.1l17.7-17.9l-2.1-2.1l0.7-0.8l18.9,18.7L116.6,208.7z"/>
	</g>
</g>
<g id="Layer_3">
</g>
</svg>
