<svg width="339" height="51" viewBox="0 0 339 51" fill="none" xmlns="http://www.w3.org/2000/svg">
<g clip-path="url(#clip0_1145_60213)">
<path d="M27.0675 32.0544C27.5244 31.1181 28.2093 29.7723 29.1296 28.9319C30.1387 28.0107 30.7701 27.8782 31.2602 27.8976C31.7503 27.917 31.9483 28.085 32.6182 28.0689C32.9949 28.0592 33.561 27.9741 34.0233 27.8221C34.4856 27.6702 34.6547 27.2338 34.919 26.5507C35.1202 26.0292 35.5536 25.1802 35.7462 24.8085C35.7622 24.7762 35.7216 24.746 35.697 24.7718C35.5728 24.8947 35.3963 25.0649 35.2678 25.1651C35.0506 25.3364 34.721 25.497 34.4192 25.6586C34.1175 25.8202 33.7408 26.1521 33.3256 26.2663C32.9104 26.3805 32.2608 26.2663 31.8734 26.1144C31.4871 25.9624 31.1757 26.0195 30.8739 26.1995C30.5721 26.3794 30.3463 26.3137 30.1387 26.067C29.9311 25.8202 29.7053 25.1274 29.5823 24.6145C29.4592 24.1017 29.5352 23.912 29.884 23.8452C30.2329 23.7784 30.6385 23.8172 30.8739 23.9778C31.0826 24.1211 31.0772 24.2794 30.9542 24.5456C30.9371 24.5822 30.9756 24.6188 31.012 24.6005C31.242 24.4777 31.5534 24.2148 31.6102 23.5985C31.6765 22.8766 31.0537 22.0987 30.5454 21.7474C30.036 21.3962 28.8482 21.0923 28.3013 20.7227C27.7545 20.3521 27.792 19.9922 27.9803 19.906C28.1504 19.8285 28.3292 19.8371 28.5646 19.9653C28.5881 19.9782 28.6138 19.9545 28.6031 19.9297C28.3998 19.475 28.1419 18.5495 28.1504 17.6649C28.1601 16.7254 28.5742 15.899 29.2719 14.9885C29.7096 14.4174 30.5165 13.5738 30.8183 13.1848C31.12 12.7959 31.2335 12.5297 31.3458 12.255C31.4593 11.9802 31.5716 11.7044 31.7225 11.5148C31.8649 11.3359 32.2501 10.9286 32.6418 10.5558C32.6632 10.5354 32.645 10.4998 32.6161 10.5052C31.8541 10.6388 30.9734 11.0568 30.4491 11.448C29.9022 11.8563 29.0536 12.6439 28.6481 12.9672C28.2425 13.2904 27.7994 13.423 27.1488 13.5846C26.9637 13.6309 26.602 13.7365 26.2531 14.0209C25.9043 14.3054 25.5276 14.7709 25.0086 15.3408C24.4896 15.9108 23.4997 16.8784 22.8779 17.4009C22.2562 17.9235 21.4258 18.4353 21.0587 18.7769C20.6906 19.1184 20.6157 19.3555 20.7195 19.5645C20.8233 19.7735 21.0876 19.8015 21.3798 19.9157C21.4975 19.9621 21.5681 20.0773 21.6248 20.5611C21.6815 21.0449 21.6997 22.1084 21.6623 23.1621C21.6291 24.0941 21.5735 25.4636 21.5606 25.7685C21.5606 25.7836 21.5799 25.789 21.5874 25.776C21.6687 25.6263 21.8988 25.191 22.0668 24.7665C22.2744 24.2439 22.5376 23.8366 22.5665 23.0964C22.5944 22.3562 22.6329 20.9986 22.6329 20.9986C22.6329 20.9986 22.9347 21.9952 23.2075 22.7354C23.4804 23.4757 23.886 24.3495 24.4146 25.1942C24.771 25.7642 25.015 26.4969 25.137 26.9149C25.1605 26.9946 25.274 26.9871 25.2868 26.9052C25.3414 26.5615 25.4099 26.0109 25.3863 25.5077C25.3489 24.7007 25.198 23.9702 24.9529 23.3625C24.7079 22.7548 24.7271 22.3282 25.0193 22.3185C25.3114 22.3088 25.4152 22.7171 25.5661 22.9833C25.717 23.2494 26.0091 23.2774 26.358 23.2677C26.7068 23.258 27.0557 23.3528 27.4142 23.7903C27.7727 24.2266 28.0081 24.9011 28.1119 26.04C28.2157 27.1789 27.9985 27.6153 27.7256 27.6444C27.4527 27.6724 27.2259 27.1789 27.1317 26.6003C27.0707 26.2253 26.8599 25.8665 26.7186 25.6597C26.6769 25.5983 26.5816 25.6263 26.5784 25.7006C26.5645 26.0713 26.5228 26.8535 26.4061 27.6056C26.266 28.5128 25.9663 29.9006 25.8368 30.3639C25.8229 30.4145 25.8754 30.4565 25.9203 30.4328C26.206 30.282 26.5099 30.1408 26.7636 30.2734C27.0183 30.4059 26.9862 31.3433 26.9551 32.0285C26.9519 32.0932 27.0386 32.1147 27.0675 32.0576M27.3382 15.7319C27.0835 15.9981 26.999 16.1209 26.9048 16.4248C26.8107 16.7286 26.603 17.137 26.4147 17.2792C26.2264 17.4214 25.84 17.4591 25.5757 17.6207C25.3114 17.7824 25.0011 18.181 24.8502 18.3803C24.6993 18.5797 24.3408 18.6077 24.1054 18.4849C23.87 18.361 23.7843 18.3426 23.4836 18.3707C23.1819 18.3987 23.0738 18.2133 23.1722 18.0765C23.3231 17.8675 23.5489 17.6875 23.8229 17.4591C24.0957 17.2318 24.313 16.9366 24.4917 16.7286C24.6704 16.5196 24.9625 16.4722 25.2087 16.4538C25.4537 16.4345 25.7555 16.1403 26.0284 15.8656C26.3013 15.5908 27.2162 14.5554 27.4238 14.4508C27.6314 14.3463 27.7063 14.5748 27.7449 14.8775C27.7823 15.1814 27.594 15.4658 27.3393 15.7319" fill="#DD550C"/>
<path d="M46.2495 14.3055C45.3067 13.3185 44.8263 12.9576 44.4399 12.4641C44.0536 11.9706 43.4597 11.1162 43.2617 10.9266C43.174 10.8425 43.0884 10.7843 43.0199 10.7466C42.9814 10.7251 42.9386 10.7682 42.961 10.8059C43.0338 10.933 43.1141 11.1367 43.0252 11.3252C42.884 11.6291 42.7138 11.5439 42.5159 11.2401C42.3329 10.96 41.434 9.86849 40.6881 9.28558C40.6496 9.25541 40.5993 9.30067 40.6239 9.34269C41.0798 10.1023 41.5538 11.0903 41.893 11.7724C42.2612 12.5126 42.4024 13.2528 42.1852 13.395C41.968 13.5372 41.8363 13.4521 41.4971 13.2151C41.2563 13.047 40.9396 12.7733 40.7758 12.6289C40.7437 12.6009 40.6956 12.63 40.7052 12.672C40.763 12.9145 40.839 13.3972 40.5736 13.5103C40.2151 13.6622 40.1306 13.548 39.6779 12.9597C39.2252 12.3714 38.7073 11.4125 38.367 10.8813C38.0278 10.3501 37.7634 10.0463 37.3675 9.80923C37.0572 9.62283 36.3766 9.36747 36.0962 9.26511C36.0566 9.2511 36.0223 9.29528 36.0459 9.33084C36.2225 9.59589 36.6698 10.2736 36.8495 10.5969C37.0753 11.0052 37.0572 11.4987 37.0946 11.8025C37.1321 12.1064 37.0475 12.5718 37.4906 13.1407C37.9336 13.7107 39.3098 15.0586 39.9133 15.7514C40.5169 16.4442 40.8368 17.0616 40.5072 17.735C40.1776 18.4084 40.0075 18.1337 39.6586 17.915C39.3098 17.6962 39.0647 17.4021 38.7822 16.9937C38.4997 16.5854 38.3113 16.2912 37.9432 15.94C37.6265 15.6372 37.3728 15.0468 37.513 14.5802C37.5269 14.535 37.4702 14.5026 37.4392 14.5382C37.1171 14.9078 36.8688 15.4971 37.0293 16.2718C37.2177 17.1834 37.7741 17.8094 38.2268 18.5313C38.6795 19.2532 39.5281 20.7907 39.9144 21.9576C40.3007 23.1256 40.2065 24.4347 39.7539 25.1372C39.3301 25.7955 38.5082 26.2707 37.436 26.3666C37.3889 26.3709 37.3814 26.4377 37.4274 26.4517C38.6602 26.8353 39.8149 26.5702 40.5554 26.0584C41.3377 25.5175 41.724 24.787 41.6202 23.6945C41.5164 22.603 41.0926 22.0427 40.9888 21.6441C40.885 21.2454 40.7245 20.9706 40.6121 20.8941C40.4987 20.8187 40.3007 20.6948 40.3478 20.4955C40.3949 20.2962 40.5928 20.2013 40.8101 20.3339C41.0273 20.4664 41.3291 20.4955 41.4607 20.2865C41.5923 20.0774 41.9134 18.7769 41.9883 18.3125C42.0632 17.8482 42.2526 17.5152 42.6389 17.5346C43.0252 17.554 43.2328 17.8956 43.4501 18.6164C43.6074 19.1379 43.8128 19.9029 43.9156 20.2865C43.9284 20.3339 43.9958 20.3274 44.0001 20.2789C44.0472 19.7704 44.1639 18.5561 44.3083 17.4301C44.4785 16.1059 44.5716 14.9422 44.3265 14.3356C44.3094 14.2936 44.3597 14.257 44.395 14.2861C44.9729 14.7742 45.4855 15.4508 45.4673 16.1199C45.448 16.8504 45.1944 17.8471 45.1655 18.6067C45.1377 19.3663 45.5614 20.6377 46.0237 21.7486C46.486 22.8594 46.6176 23.6848 46.4764 24.5866C46.3351 25.4884 45.8825 26.1909 45.5336 26.4C45.1848 26.609 44.9964 26.6187 44.7417 26.3623C44.487 26.1058 44.0344 25.4981 43.2146 25.5843C42.3949 25.6694 41.5934 26.4862 41.2724 27.1984C40.9524 27.9106 40.0374 29.9039 39.5002 30.4157C38.963 30.9285 38.4911 31.0137 38.001 31.0805C37.5109 31.1473 36.445 31.4037 35.7099 31.5739C35.0774 31.7205 34.6055 31.8821 34.4139 32.0092C34.3829 32.0297 34.3422 32.0049 34.3465 31.9672C34.384 31.658 34.659 31.2669 35.041 30.8994C35.4648 30.4911 36.1154 30.0073 36.2663 28.4407C36.3819 27.2393 36.1208 26.373 35.9924 26.0347C35.9763 25.9927 35.9153 25.9992 35.9089 26.0444C35.8661 26.3396 35.7206 26.985 35.2486 27.6153C34.6076 28.4698 33.7965 29.2854 32.6086 29.78C31.4208 30.2734 31.0056 30.2357 30.7605 30.0547C30.6171 29.9491 30.5219 29.7649 30.4673 29.6313C30.4513 29.5903 30.3913 29.5979 30.3849 29.641C30.3282 29.9955 30.187 30.7917 30.035 31.0611C29.837 31.4123 29.4978 31.9726 28.7904 32.8744C28.0831 33.7763 27.075 35.817 26.5282 37.0323C25.9814 38.2477 25.7641 40.0417 25.6518 41.2851C25.5383 42.5285 25.9343 44.0477 26.4629 44.845C26.9905 45.6423 27.1981 45.8891 27.4624 46.4397C27.6368 46.8028 27.7535 47.1982 27.8123 47.4255C27.8241 47.4697 27.8873 47.4686 27.8969 47.4234C27.99 46.9676 28.2404 45.8007 28.5368 44.9398C28.9135 43.8484 29.9697 42.7375 30.875 42.2537C31.7804 41.7699 33.8543 41.3993 34.674 41.0577C35.4937 40.7162 36.3519 40.0805 36.9651 39.3306C37.5783 38.5807 37.8801 38.1249 38.4258 37.6217C38.8625 37.2198 39.5409 36.8416 39.7956 36.707C39.8309 36.6876 39.8245 36.6348 39.7849 36.6261C39.4992 36.5593 38.7094 36.3999 37.8886 36.4839C36.8613 36.5884 35.4755 37.5 34.8249 38.0786C34.1742 38.6572 33.7408 39.0278 33.0806 39.0752C32.4203 39.1226 31.9024 38.8759 31.6006 38.7714C31.2988 38.6669 30.9499 38.7337 30.63 39.0084C30.3314 39.2648 29.1575 40.8142 28.5721 41.478C28.5422 41.5124 28.4855 41.4823 28.4983 41.437C28.8193 40.2313 29.2185 39.2174 30.0553 38.2208C30.9318 37.1767 33.4112 35.316 34.232 34.6328C35.0517 33.9497 36.2867 33.3323 38.1915 32.8292C40.0963 32.326 41.4907 32.0599 42.1231 31.8131C42.7545 31.5664 43.0381 31.2528 43.1504 31.0912C43.2639 30.9296 43.037 30.8822 42.8016 31.0244C42.5662 31.1667 42.4527 31.1386 42.3585 31.0438C42.2644 30.949 42.6132 30.7874 43.0755 30.5784C43.5378 30.3693 44.8295 29.6668 46.2624 28.3286C47.6953 26.9904 49.1474 25.0348 49.4107 22.7097C49.675 20.3845 49.2876 19.3017 48.7418 17.9063C48.195 16.511 47.1955 15.2957 46.2527 14.3087" fill="#DD550C"/>
<path d="M38.2107 40.7088C37.4852 41.4781 36.4289 42.2291 35.4937 42.5911C34.5134 42.9704 33.1458 43.0652 32.1474 43.5501C31.1479 44.0338 29.9023 45.2966 29.4603 45.7998C29.0269 46.2933 28.7059 46.9204 28.5646 48.0021C28.4233 49.0839 28.8375 50.5266 29.5823 50.7928C30.3271 51.0589 30.9306 50.7734 31.9387 50.2142C32.9478 49.6539 33.6734 49.2455 34.3711 49.2929C35.026 49.3371 35.3898 49.7164 35.5418 50.2885C35.5504 50.3208 35.5964 50.3219 35.6071 50.2896C35.8607 49.502 35.9335 48.7262 35.4755 48.2004C34.996 47.652 33.5888 47.3104 32.3571 47.5151C32.3496 47.5162 32.3421 47.5151 32.3357 47.5119C32.0725 47.3654 31.7161 46.9818 31.1201 47.4031C30.5165 47.8297 30.4887 48.6184 30.4031 49.0925C30.3185 49.5666 30.2714 49.6808 30.1013 49.6808C29.9311 49.6808 29.7621 49.5192 29.8188 49.377C29.8755 49.2348 30.0638 48.9977 30.0638 48.6745C30.0638 48.3803 29.837 47.8653 29.7963 47.7769C29.792 47.7683 29.792 47.7586 29.7963 47.75C29.8295 47.6714 30.0093 47.2695 30.356 46.8525C30.7423 46.387 31.6851 46.3019 32.9018 46.0552C34.1175 45.8084 35.4658 45.0111 36.4653 43.9099C37.422 42.8551 37.9207 41.8272 38.2674 40.7411C38.2781 40.7066 38.2353 40.6808 38.2107 40.7077" fill="#DD550C"/>
<path d="M28.0585 50.2033C27.9172 50.1882 27.7503 50.2022 27.593 50.2701C27.3757 50.3649 27.1692 50.4414 26.7347 50.2033C26.3591 49.9975 26.0263 49.5783 25.9439 49.4706C25.9321 49.4555 25.9343 49.435 25.9471 49.421C26.0584 49.3057 26.5592 48.7713 26.8674 48.2003C27.2163 47.5549 27.1885 46.3395 26.5186 45.6564C25.8497 44.9733 25.1049 45.1155 24.5292 45.0961C23.9545 45.0767 23.4355 44.7729 23.2279 44.2514C23.0203 43.7288 22.7004 42.1342 22.0123 40.5966C21.3242 39.0591 19.6933 36.7339 18.3075 35.7847C17.1989 35.0251 16.1683 34.9098 15.8013 34.8936C15.7627 34.8915 15.7467 34.9432 15.7799 34.9637C16.026 35.1156 16.6092 35.5024 17.1764 36.0874C17.9212 36.8568 18.2326 37.625 18.7227 39.0871C19.2128 40.5492 19.3166 41.8206 19.4953 43.2924C19.674 44.7632 20.3536 46.1111 21.0042 46.7662C21.6548 47.4213 22.2295 47.9815 22.3622 48.3134C22.4938 48.6453 22.2777 48.6743 22.0412 48.6927C21.8057 48.7121 21.626 48.7875 21.2867 49.0062C20.9475 49.2249 20.4103 49.5374 19.8442 49.462C19.3958 49.4016 18.9999 48.989 18.8565 48.8209C18.834 48.795 18.7923 48.809 18.7901 48.8435C18.7762 49.0515 18.7677 49.5719 18.9581 50.0222C19.2032 50.6008 19.6088 50.9338 20.3343 51.0286C21.0599 51.1234 21.8239 50.8864 22.6062 50.6105C23.3885 50.3358 23.8507 50.3541 24.3216 50.478C24.7925 50.6019 25.5469 51.0286 26.235 51.0566C26.9231 51.0846 27.1499 50.9241 27.4228 50.6676C27.6401 50.464 27.8744 50.3444 28.066 50.2754C28.1034 50.2614 28.0981 50.2065 28.0574 50.2022" fill="#DD550C"/>
<path d="M14.7814 36.8481C13.6128 35.0918 11.9349 33.5737 10.5394 32.577C9.14399 31.5804 6.72123 30.7065 5.2787 29.7961C3.83618 28.8845 3.101 27.9924 2.68579 26.9958C2.27058 25.9991 2.3273 24.6232 3.01539 23.1805C3.59861 21.9576 4.73722 20.6592 5.0711 20.2918C5.0925 20.2681 5.06682 20.2315 5.03686 20.2444C4.64305 20.4168 3.41455 20.9889 2.47712 21.8229C1.346 22.8292 0.356132 24.0155 0.0821797 25.7524C-0.190702 27.4892 0.242698 28.78 0.987505 29.9663C1.73231 31.1526 3.13739 32.3206 4.21179 32.8237C5.2862 33.3269 9.39654 35.1963 10.7449 35.9376C12.0933 36.6778 14.1479 38.0731 15.1752 39.0418C15.9232 39.7464 16.5011 40.5157 16.7601 40.8831C16.7804 40.9122 16.8253 40.8875 16.8114 40.8551C16.4936 40.0535 15.8248 38.4212 14.7782 36.8491M8.48052 33.147C8.38635 33.2892 7.31194 33.0328 6.70839 32.7386C6.10484 32.4445 4.23854 31.5146 3.43702 30.8207C2.6355 30.1279 1.9763 29.0742 1.9763 29.0742C1.9763 29.0742 2.49531 29.4631 3.04107 29.8338C3.58791 30.2044 4.04057 30.5169 4.92663 30.9447C5.8127 31.3713 7.16105 32.0652 7.67899 32.34C8.198 32.6147 8.57469 33.0048 8.48052 33.147Z" fill="#DD550C"/>
<path d="M5.06472 25.0692C5.3162 25.3181 5.79347 25.8493 6.02462 26.4828C6.34566 27.3653 6.56182 28.4955 7.08083 29.3403C7.59985 30.185 8.73953 30.6214 9.56994 31.02C10.3993 31.4187 11.6438 32.0167 12.1532 32.3959C12.6626 32.7752 13.1624 33.2881 13.6139 33.4497C14.0666 33.6113 14.3684 33.2407 14.3684 32.9465C14.3684 32.6524 14.0388 32.1772 13.661 31.8831C13.2843 31.5889 12.7375 31.2571 12.4828 30.839C12.2281 30.4209 11.9553 29.643 11.8044 29.225C11.6535 28.8069 11.4459 28.5602 11.097 28.2477C10.8487 28.0247 10.4464 27.7769 10.2366 27.653C10.196 27.6292 10.1478 27.6723 10.1692 27.7154C10.3212 28.0311 10.669 28.8091 10.7203 29.4146C10.7867 30.1925 10.6262 30.63 10.1168 30.4781C9.6074 30.3261 9.09909 29.6527 8.81551 28.808C8.53299 27.9633 8.37247 27.2133 7.61804 26.3966C6.93637 25.6586 5.82344 25.2308 5.11502 24.9873C5.06686 24.9712 5.02941 25.0315 5.06579 25.0681" fill="#DD550C"/>
<path d="M13.0949 23.9433C13.5818 23.354 14.1179 22.2916 14.1971 21.1958C14.2816 20.0278 13.9328 19.3264 13.2736 19.0409C12.6133 18.7564 11.9445 19.1357 11.4726 19.8382C11.0017 20.5407 10.7374 21.727 10.3982 22.5911C10.2023 23.0889 9.99151 23.3163 9.84704 23.4186C9.81815 23.4391 9.83741 23.4843 9.87272 23.479C10.9386 23.2947 11.3548 22.2862 11.7465 21.6236C12.1617 20.9211 12.6518 20.6646 13.0852 21.2152C13.5015 21.7442 13.3356 22.7894 13.0382 23.9132C13.0285 23.9476 13.0724 23.9703 13.0949 23.9433Z" fill="#DD550C"/>
<path d="M6.61745 18.8719C7.47783 19.3147 8.35426 19.1412 9.23818 18.624C10.181 18.0735 10.7941 17.2955 12.1981 17.0488C13.6032 16.802 14.5931 17.191 15.1014 17.5714C15.6108 17.9506 15.9029 18.6154 15.9404 19.0712C15.9789 19.5399 15.7799 20.3911 15.5348 20.8845C15.2897 21.378 14.8274 22.5072 14.7622 22.9921C14.6958 23.4758 14.8467 23.6752 14.9601 23.8842C15.0565 24.062 15.187 24.3303 15.2234 24.4046C15.2298 24.4175 15.2298 24.4315 15.2245 24.4456C15.156 24.6104 14.6926 25.7396 14.4219 26.7319C14.1297 27.804 14.0163 29.2952 14.988 31.0601C15.9586 32.826 17.8634 34.2968 19.0138 35.246C20.1642 36.1953 21.8228 37.4387 22.832 38.5592C23.7598 39.5893 24.4714 41.0514 24.7047 42.0771C24.7165 42.131 24.7935 42.1278 24.801 42.0728C24.9187 41.2162 24.8962 39.614 24.8962 38.8049C24.8962 37.903 25.0193 36.8116 25.0846 36.3278C25.1327 35.9733 25.2365 35.7664 25.289 35.6813C25.304 35.6576 25.2954 35.6253 25.2708 35.6124C25.0461 35.4928 24.9187 35.2202 24.9808 34.9896C25.0343 34.7892 25.2997 34.6394 25.3971 34.5898C25.4174 34.5791 25.4281 34.5554 25.4227 34.5327C25.3917 34.4121 25.3147 34.0317 25.4709 33.7182C25.6357 33.3874 25.8433 33.5113 26.0937 33.73C26.129 33.7613 26.1836 33.73 26.174 33.6826C26.0798 33.229 26.0638 32.9812 26.1397 32.7495C26.2243 32.4931 26.4041 32.408 26.2435 31.9242C26.083 31.4404 25.6025 30.2348 24.7828 29.3232C23.9631 28.4117 23.4441 28.2598 22.9069 27.3967C22.5024 26.7459 22.3162 26.0898 22.2498 25.8053C22.2391 25.759 22.176 25.7536 22.1567 25.7967C22.0144 26.1156 21.6666 26.9129 21.5778 27.3019C21.4644 27.7954 21.5307 28.5647 21.6527 29.0582C21.7758 29.5516 21.6805 29.9029 21.3038 29.8275C20.9272 29.752 19.7479 29.1444 18.9185 28.1477C18.0892 27.1511 17.6076 26.3634 17.4953 24.9487C17.3818 23.534 17.8067 22.2055 18.0699 21.4362C18.3342 20.6669 18.5697 19.7371 18.5408 19.0723C18.513 18.4075 18.4562 18.3126 18.4092 17.9517C18.3621 17.5908 18.5033 17.0305 18.3246 16.746C18.1459 16.4616 17.8441 16.537 17.5605 16.5187C17.278 16.4993 16.9859 16.4239 16.5043 16.1103C16.0238 15.7968 14.638 15.1988 13.0072 15.4358C11.3763 15.6729 10.1606 16.4045 9.19859 17.2395C8.29326 18.026 7.63835 18.7447 6.63671 18.7792C6.58534 18.7813 6.57036 18.8492 6.61531 18.8729M17.3251 28.2975C18.1545 29.5312 19.1732 30.3479 20.1631 31.2497C21.153 32.1516 21.6334 32.9112 21.8132 33.632C21.9919 34.3539 21.6623 34.8183 20.9742 34.6954C20.2861 34.5715 18.3342 33.9358 17.1657 32.7689C15.9971 31.601 15.5723 30.5763 15.4032 28.7446C15.233 26.9129 16.0249 25.5176 16.0249 25.5176C16.0249 25.5176 16.4958 27.0649 17.3262 28.2986M16.2421 21.8532C16.1854 22.2238 16.1951 22.3467 16.0442 22.6031C15.8933 22.8595 15.8269 22.9824 15.7617 23.2679C15.6953 23.5523 15.6675 23.6946 15.4695 23.5426C15.2715 23.3907 15.3186 23.0395 15.4224 22.6311C15.5262 22.2228 16.346 20.6378 16.346 20.6378C16.346 20.6378 16.2989 21.4825 16.2421 21.8532Z" fill="#DD550C"/>
<path d="M51.0479 20.5321C50.8564 20.2918 50.7782 19.9244 50.7836 19.6292C50.79 19.2704 50.8874 18.6314 50.79 18.3578C50.6926 18.0841 50.2592 17.3665 49.7927 16.845C49.4855 16.5013 49.1549 16.1651 48.9665 15.9766C48.9259 15.9356 48.8574 15.9766 48.8734 16.0315C48.9291 16.233 49.0008 16.5455 48.9965 16.8052C48.9901 17.2286 48.8991 17.5615 49.1913 17.8287C49.4823 18.096 49.7873 18.5323 49.8451 18.8653C49.9029 19.1982 49.89 19.7261 50.0067 20.0709C50.1137 20.3866 50.3448 20.4739 50.9923 20.6215C51.0436 20.6334 51.0822 20.573 51.049 20.531" fill="#DD550C"/>
<path d="M8.56083 9.51188C9.25534 9.12292 10.1414 8.88803 11.0061 8.73395C12.0034 8.55617 13.8911 8.39886 15.2834 8.1435C16.6767 7.88707 18.4787 7.32463 19.4483 6.73419C20.4167 6.14374 21.3574 5.36689 21.718 5.08244C22.0134 4.84971 22.4211 4.77428 22.6062 4.77752C22.6565 4.77752 22.694 4.82385 22.6843 4.87341C22.6169 5.21928 22.1878 5.94979 21.7458 6.66307C21.3488 7.30416 20.8641 7.92586 20.2616 8.25125C20.1845 8.29219 20.2198 8.40964 20.3065 8.40317C21.291 8.32991 22.0744 7.9334 22.7293 7.46686C23.4784 6.93244 24.2992 5.94333 24.7657 5.3378C25.2323 4.73226 25.8187 4.0136 27.1061 3.79272C28.3935 3.57184 29.7932 4.0707 30.1602 4.34115C30.5284 4.61159 30.6482 4.93914 30.3935 5.15247C30.1388 5.36581 29.6016 5.34426 28.7819 5.40891C27.9622 5.47248 27.0633 5.62979 25.5865 6.58334C24.1087 7.53689 23.0204 8.62621 22.1429 9.35242C21.4483 9.92778 20.6746 10.4978 20.1514 10.7887C20.0764 10.8296 20.1085 10.9449 20.1942 10.9406C21.3424 10.8867 22.0027 10.7154 23.0985 10.0926C24.3141 9.40198 25.3254 8.65422 26.3292 8.19845C27.333 7.74269 28.9028 7.27292 30.4085 7.23736C31.9142 7.2018 32.7917 7.4507 33.6114 7.83535C34.1999 8.11118 34.643 8.50445 34.8463 8.70486C34.8816 8.73934 34.9383 8.70486 34.9266 8.65745C34.8624 8.41179 34.7297 7.96034 34.552 7.65757C34.2973 7.22335 34.5028 6.83223 35.1673 6.92382C35.8319 7.01648 36.9769 7.65757 37.5355 7.94848C38.0941 8.24048 38.9567 8.31913 39.3526 8.24802C39.7485 8.17691 40.137 8.24048 40.5265 8.43334C40.8882 8.6122 41.9016 9.33733 42.5405 10.0107C42.5887 10.0614 42.6732 10.0312 42.6785 9.96118C42.6903 9.80818 42.731 9.5873 42.853 9.36642C43.0167 9.07012 43.2596 8.97315 43.3731 8.94298C43.4084 8.93328 43.4458 8.94944 43.464 8.98177C43.5732 9.17679 43.968 9.87498 44.212 10.2208C44.4967 10.6249 45.0671 11.0548 45.4352 11.2897C45.8044 11.5246 46.8082 12.0655 47.0735 12.3003C47.3389 12.5352 47.5401 12.7637 47.7081 13.0104C47.8761 13.2582 48.012 13.4737 48.0324 13.3229C48.0516 13.1731 47.9414 12.9317 47.8965 12.6322C47.8515 12.3327 47.8901 12.1495 47.8451 11.7713C47.8002 11.3931 47.599 10.7348 47.0939 10.1874C46.5888 9.6401 44.8862 8.38162 43.9017 7.62525C43.1462 7.04449 42.0482 6.2461 41.5785 5.90562C41.5132 5.85821 41.4276 5.92609 41.4565 6.00151C41.5699 6.29243 41.7433 6.76435 41.7978 7.09083C41.8824 7.59292 41.6876 7.85367 41.1889 7.85367C40.6903 7.85367 38.9278 6.74496 38.1434 6.11896C37.359 5.49295 37.0047 4.87988 36.5103 4.32498C36.0149 3.77009 35.4285 3.41345 35.0967 3.11499C34.7639 2.81546 33.8736 1.96858 33.7387 1.84036C33.6039 1.71214 33.2861 1.52682 32.9543 1.56237C32.6215 1.59793 32.4032 1.61194 31.9784 1.53436C31.5546 1.45571 31.5043 1.12816 31.2849 0.886806C31.0656 0.644377 30.7755 0.417033 30.4224 0.203696C30.0693 -0.00964141 29.9483 -0.0387328 29.8852 0.0399218C29.8221 0.118576 29.9205 0.28235 30.0479 0.395484C30.1752 0.509695 30.1538 0.665926 29.8574 0.737039C29.5599 0.808151 29.1361 0.636835 28.372 0.359928C27.608 0.0819428 26.3142 -0.0527398 25.289 0.0323796C24.2638 0.117499 23.4794 0.523702 22.6094 1.07859C21.7394 1.63349 21.1252 1.91901 20.8491 2.04723C20.573 2.17545 20.2338 2.22501 20.0497 2.24656C19.8656 2.26811 19.8303 2.46744 20.0283 2.48145C20.2263 2.49545 20.3108 2.4599 20.4456 2.58165C20.5494 2.67539 20.7603 2.96631 20.8501 3.09237C20.8737 3.12577 20.8694 3.1721 20.8384 3.20011C20.6051 3.4113 19.6323 4.26896 18.4873 4.93806C17.1721 5.70737 14.5846 6.66846 13.4534 6.94537C12.3223 7.22335 11.1056 7.5078 10.258 7.87845C9.51431 8.20276 8.94394 8.69193 8.45703 9.39336C8.4078 9.46447 8.48806 9.55282 8.56297 9.5108M23.8315 1.77787C24.7582 1.20789 25.9525 0.830778 27.3597 1.06566C28.7669 1.30055 29.714 1.99875 30.4995 2.58165C31.2839 3.16564 31.85 3.50719 32.3593 3.82073C32.6686 4.01036 33.0324 4.09117 33.27 4.12458C33.3353 4.13319 33.3663 4.04808 33.3117 4.01144C33.0795 3.85629 32.7093 3.58908 32.4717 3.32294C32.1036 2.91028 31.7997 2.2832 31.7579 2.16252C31.9773 2.09895 32.6986 2.25518 32.6986 2.25518C32.6986 2.25518 33.4765 3.34449 33.9078 3.82181C34.3391 4.29912 34.6077 4.73981 34.4739 4.98223C34.3391 5.22466 33.8522 5.20311 33.1234 4.88957C32.3946 4.57603 30.7477 3.73669 29.6027 3.40914C28.4577 3.08159 27.6369 2.99647 27.0365 3.0956C26.4351 3.1958 26.1098 3.39513 25.7781 3.43069C25.4453 3.46625 25.2976 3.35204 25.5373 3.12469C25.7021 2.96846 25.945 2.80469 26.0798 2.71741C26.113 2.69586 26.1012 2.64414 26.0616 2.63983C25.7984 2.6129 25.1285 2.5698 24.3355 2.71849C23.3104 2.91028 22.13 3.35204 21.458 3.75824C21.458 3.75824 22.9069 2.34892 23.8336 1.77894" fill="#DD550C"/>
<path d="M72.247 27.6109V35.5167C72.247 37.0589 72.3404 38.0302 72.5295 38.4283C72.7163 38.8286 73.0509 39.1458 73.531 39.3843C74.0112 39.6227 74.8911 39.7408 76.1708 39.7408V40.5196H61.7965V39.7408C63.1045 39.7408 63.9909 39.6183 64.4559 39.3733C64.9208 39.1283 65.2489 38.8089 65.4357 38.4174C65.6226 38.0258 65.7182 37.0589 65.7182 35.5145V17.01C65.7182 15.4678 65.6248 14.4965 65.4357 14.0984C65.2489 13.6981 64.9165 13.3809 64.445 13.1424C63.9714 12.904 63.0893 12.7858 61.7944 12.7858V12.0071H74.1242C78.1849 12.0071 81.0984 12.7355 82.867 14.1946C84.6333 15.6537 85.5176 17.476 85.5176 19.6613C85.5176 21.512 84.9462 23.0958 83.8077 24.4127C82.6671 25.7296 81.0962 26.6287 79.0931 27.1034C77.7438 27.4402 75.4625 27.6087 72.2492 27.6087M72.2492 13.6456V25.968C72.7076 25.9965 73.0552 26.0096 73.2921 26.0096C74.9889 26.0096 76.2968 25.5021 77.2137 24.4849C78.1327 23.4677 78.5912 21.8948 78.5912 19.7641C78.5912 17.6335 78.1327 16.0978 77.2137 15.1178C76.2947 14.1378 74.9259 13.6456 73.103 13.6456H72.247H72.2492Z" fill="#021834"/>
<path d="M96.2201 12.0071V23.3823C97.2912 22.247 98.2711 21.4442 99.1619 20.9738C100.053 20.5035 100.976 20.2695 101.936 20.2695C103.16 20.2695 104.207 20.6195 105.076 21.3217C105.945 22.0239 106.523 22.8464 106.807 23.7936C107.092 24.7408 107.235 26.3355 107.235 28.5778V36.2539C107.235 37.7545 107.375 38.6908 107.653 39.0605C107.931 39.4324 108.493 39.6665 109.343 39.7649V40.5218H99.453V39.7649C100.148 39.6665 100.67 39.3865 101.017 38.9249C101.267 38.5596 101.393 37.6714 101.393 36.2539V27.484C101.393 25.8586 101.33 24.8371 101.206 24.4236C101.08 24.0102 100.87 23.6886 100.57 23.4567C100.27 23.2248 99.9332 23.1089 99.5573 23.1089C99.0011 23.1089 98.4579 23.3014 97.93 23.6864C97.402 24.0714 96.8306 24.7474 96.2201 25.7165V36.2517C96.2201 37.6539 96.3244 38.5289 96.533 38.8811C96.798 39.358 97.339 39.6533 98.1603 39.7649V40.5218H88.2704V39.7649C89.0916 39.6818 89.6761 39.4149 90.0237 38.9664C90.2605 38.658 90.3778 37.7545 90.3778 36.2539V16.2772C90.3778 14.7918 90.2431 13.8665 89.9715 13.5012C89.7 13.1359 89.1329 12.8996 88.2704 12.7858V12.0071H96.2201Z" fill="#021834"/>
<path d="M121.214 20.2715C122.911 20.2715 124.491 20.7134 125.951 21.5971C127.411 22.4809 128.521 23.7344 129.279 25.3619C130.037 26.9873 130.416 28.7679 130.416 30.7039C130.416 33.493 129.714 35.8272 128.308 37.7063C126.611 39.9769 124.267 41.1123 121.277 41.1123C118.288 41.1123 116.083 40.0754 114.496 37.9994C112.91 35.9256 112.117 33.5193 112.117 30.787C112.117 28.0548 112.928 25.5129 114.549 23.4172C116.169 21.3215 118.39 20.2737 121.214 20.2737M121.297 21.7656C120.589 21.7656 119.978 22.0368 119.472 22.575C118.963 23.1153 118.631 24.1806 118.47 25.771C118.309 27.3613 118.231 29.5729 118.231 32.4058C118.231 33.9065 118.329 35.3087 118.522 36.6125C118.675 37.6078 119.003 38.3647 119.502 38.8832C120.002 39.4016 120.573 39.6619 121.212 39.6619C121.851 39.6619 122.359 39.4869 122.776 39.1369C123.32 38.66 123.68 37.995 123.861 37.1397C124.139 35.8075 124.278 33.1168 124.278 29.0654C124.278 26.6832 124.145 25.0447 123.882 24.1544C123.617 23.2641 123.228 22.6165 122.713 22.2097C122.351 21.9143 121.879 21.7678 121.295 21.7678" fill="#021834"/>
<path d="M149.902 29.9864H139.2C139.326 32.594 140.014 34.6546 141.266 36.1684C142.226 37.3322 143.38 37.9141 144.729 37.9141C145.563 37.9141 146.322 37.68 147.004 37.2097C147.686 36.7394 148.416 35.895 149.194 34.6765L149.902 35.1403C148.844 37.3125 147.677 38.8525 146.398 39.756C145.118 40.6595 143.636 41.1123 141.955 41.1123C139.061 41.1123 136.871 39.9901 135.382 37.7478C134.185 35.9387 133.588 33.6965 133.588 31.0189C133.588 27.7376 134.468 25.1279 136.227 23.1853C137.987 21.2428 140.049 20.2737 142.413 20.2737C144.388 20.2737 146.102 21.0896 147.556 22.7237C149.009 24.3578 149.791 26.7795 149.902 29.9886M144.77 28.5798C144.77 26.3223 144.649 24.7735 144.405 23.9335C144.162 23.0934 143.782 22.4547 143.269 22.0193C142.978 21.7678 142.587 21.6409 142.1 21.6409C141.377 21.6409 140.786 21.9975 140.327 22.7128C139.506 23.9597 139.095 25.6704 139.095 27.8426V28.5776H144.77V28.5798Z" fill="#021834"/>
<path d="M160.311 20.8599V23.4041C161.313 22.3103 162.273 21.5162 163.19 21.0174C164.109 20.5209 165.095 20.2715 166.154 20.2715C167.418 20.2715 168.47 20.6259 169.304 21.3324C170.138 22.0412 170.694 22.9206 170.972 23.9706C171.194 24.7691 171.307 26.3047 171.307 28.5754V36.2297C171.307 37.7434 171.442 38.6863 171.713 39.0582C171.985 39.43 172.552 39.6641 173.415 39.7626V40.5194H163.546V39.7626C164.283 39.6641 164.811 39.3557 165.132 38.8372C165.354 38.4872 165.467 37.6166 165.467 36.2297V27.4816C165.467 25.8694 165.404 24.8522 165.28 24.4322C165.154 24.0122 164.943 23.6863 164.644 23.4544C164.344 23.2225 164.013 23.1065 163.653 23.1065C162.456 23.1065 161.343 23.9684 160.316 25.6922V36.2275C160.316 37.6997 160.45 38.6316 160.722 39.0254C160.993 39.4191 161.498 39.6641 162.234 39.7604V40.5173H152.366V39.7604C153.187 39.6772 153.769 39.4104 154.119 38.9619C154.356 38.6535 154.473 37.7413 154.473 36.2275V25.1257C154.473 23.6403 154.339 22.715 154.067 22.3497C153.795 21.9843 153.228 21.7481 152.366 21.6343V20.8556H160.316L160.311 20.8599Z" fill="#021834"/>
<path d="M183.722 20.86V36.4419C183.722 37.8289 183.882 38.717 184.202 39.102C184.521 39.487 185.147 39.708 186.079 39.7648V40.5217H175.544V39.7648C176.406 39.7364 177.045 39.4848 177.462 39.0079C177.74 38.6864 177.879 37.831 177.879 36.4419V24.9595C177.879 23.5726 177.719 22.6844 177.399 22.2994C177.08 21.9144 176.461 21.6935 175.542 21.6366V20.8578H183.72L183.722 20.86ZM180.802 11.3333C181.705 11.3333 182.47 11.6526 183.096 12.2892C183.722 12.928 184.035 13.6958 184.035 14.5927C184.035 15.4896 183.717 16.2531 183.085 16.8853C182.453 17.5153 181.69 17.8325 180.799 17.8325C179.909 17.8325 179.15 17.5175 178.525 16.8853C177.899 16.2552 177.586 15.4896 177.586 14.5927C177.586 13.6958 177.899 12.928 178.525 12.2892C179.15 11.6526 179.909 11.3333 180.799 11.3333" fill="#021834"/>
<path d="M199.515 28.4728L202.895 34.9501C204.064 37.2077 204.988 38.6383 205.67 39.2399C206.046 39.5636 206.561 39.7387 207.215 39.7649V40.5218H196.345V39.7649C197.192 39.6949 197.718 39.5833 197.92 39.428C198.122 39.2749 198.222 39.0627 198.222 38.798C198.222 38.4064 198 37.7895 197.555 36.9473L195.865 33.7513L194.424 35.8754C193.77 36.8423 193.403 37.4177 193.318 37.5992C193.207 37.8661 193.151 38.1046 193.151 38.3146C193.151 38.6383 193.216 38.9074 193.349 39.124C193.481 39.3405 193.661 39.5024 193.892 39.6074C194.122 39.7124 194.541 39.7649 195.154 39.7649V40.5218H187.517V39.7649C188.462 39.7649 189.329 39.5024 190.116 38.9774C190.902 38.4524 192.045 37.0742 193.549 34.8451L195.154 32.4476L191.795 26.1802C190.696 24.1327 189.877 22.8792 189.334 22.4154C188.79 21.9539 188.186 21.6936 187.519 21.6367V20.8579H198.326V21.6367L197.763 21.6586L196.679 22.037C196.569 22.1354 196.512 22.2973 196.512 22.5204C196.512 22.7305 196.547 22.9492 196.616 23.1723C196.658 23.2708 196.853 23.6492 197.201 24.3077L198.724 27.1668L199.517 26.0315C200.629 24.4892 201.185 23.4108 201.185 22.7939C201.185 22.4986 201.064 22.2514 200.82 22.0479C200.577 21.8445 200.143 21.7089 199.517 21.6389V20.8601H206.424V21.6389C205.574 21.6673 204.783 21.9298 204.045 22.4264C203.308 22.9251 202.48 23.8877 201.561 25.3183L199.517 28.4728H199.515Z" fill="#021834"/>
<path d="M237.498 30.1331L245.176 11.3333H256.693V12.112H255.774C254.94 12.112 254.273 12.2586 253.771 12.5539C253.423 12.7508 253.145 13.0789 252.937 13.5427C252.782 13.8796 252.706 14.7546 252.706 16.1721V34.9719C252.706 36.431 252.782 37.341 252.937 37.7064C253.089 38.0717 253.402 38.3889 253.875 38.6623C254.349 38.9358 254.981 39.0714 255.774 39.0714H256.693V39.8502H241.921V39.0714H242.84C243.675 39.0714 244.342 38.9248 244.844 38.6295C245.191 38.4326 245.469 38.0957 245.678 37.621C245.83 37.2842 245.908 36.4004 245.908 34.9719V13.838L235.06 39.8502H234.56L223.545 14.0283V34.11C223.545 35.5122 223.58 36.3741 223.649 36.6957C223.83 37.3979 224.223 37.9689 224.829 38.4086C225.433 38.8504 226.383 39.0714 227.677 39.0714V39.8502H217.996V39.0714H218.287C218.913 39.0845 219.497 38.9839 220.041 38.7673C220.584 38.5507 220.992 38.2598 221.272 37.8945C221.551 37.5292 221.766 37.0195 221.92 36.3588C221.948 36.2057 221.961 35.4904 221.961 34.215V16.1721C221.961 14.7283 221.885 13.8271 221.731 13.4705C221.577 13.1139 221.264 12.7967 220.792 12.5233C220.319 12.2498 219.686 12.1142 218.893 12.1142H217.996V11.3354H229.555L237.504 30.1352L237.498 30.1331Z" fill="#021834"/>
<path d="M275.428 29.315H264.726C264.852 31.9226 265.538 33.9832 266.792 35.497C267.752 36.6608 268.906 37.2427 270.255 37.2427C271.089 37.2427 271.848 37.0086 272.53 36.5383C273.212 36.068 273.942 35.2236 274.72 34.0051L275.43 34.4689C274.372 36.6411 273.205 38.1812 271.926 39.0846C270.646 39.9881 269.164 40.4409 267.483 40.4409C264.589 40.4409 262.399 39.3187 260.91 37.0764C259.713 35.2673 259.116 33.0251 259.116 30.3475C259.116 27.0662 259.996 24.4565 261.756 22.5139C263.515 20.5714 265.577 19.6023 267.941 19.6023C269.916 19.6023 271.63 20.4182 273.084 22.0523C274.537 23.6864 275.319 26.1081 275.43 29.3172M270.298 27.9084C270.298 25.6509 270.177 24.1021 269.933 23.2621C269.69 22.422 269.31 21.7833 268.797 21.348C268.506 21.0964 268.115 20.9695 267.628 20.9695C266.905 20.9695 266.314 21.3261 265.855 22.0414C265.034 23.2883 264.623 24.999 264.623 27.1712V27.9062H270.298V27.9084Z" fill="#021834"/>
<path d="M285.609 12.9958V20.1885H290.241V22.2711H285.609V34.4054C285.609 35.5407 285.661 36.2736 285.766 36.6017C285.87 36.932 286.055 37.1989 286.317 37.4002C286.583 37.6036 286.826 37.7042 287.047 37.7042C287.951 37.7042 288.807 37.0108 289.613 35.6217L290.239 36.0854C289.111 38.7761 287.284 40.1237 284.751 40.1237C283.513 40.1237 282.465 39.7758 281.611 39.0824C280.755 38.3889 280.21 37.6145 279.973 36.7592C279.834 36.2823 279.765 34.9938 279.765 32.8894V22.2711H277.218V21.536C278.972 20.2891 280.462 18.9788 281.694 17.6028C282.926 16.229 283.999 14.6934 284.918 12.998H285.607L285.609 12.9958Z" fill="#021834"/>
<path d="M302.862 36.9474C300.483 39.0649 298.347 40.1237 296.457 40.1237C295.345 40.1237 294.419 39.7562 293.683 39.019C292.946 38.284 292.577 37.3608 292.577 36.2539C292.577 34.7533 293.216 33.4036 294.495 32.207C295.775 31.0082 298.565 29.4135 302.862 27.4228V25.4453C302.862 23.9599 302.782 23.0236 302.623 22.6386C302.462 22.2536 302.16 21.9167 301.715 21.6302C301.27 21.3436 300.77 21.1992 300.214 21.1992C299.31 21.1992 298.565 21.4027 297.98 21.8095C297.617 22.0611 297.437 22.3564 297.437 22.6933C297.437 22.9886 297.633 23.3518 298.022 23.7871C298.549 24.3909 298.815 24.9727 298.815 25.5328C298.815 26.2196 298.56 26.8059 298.054 27.2894C297.546 27.7728 296.883 28.0156 296.062 28.0156C295.186 28.0156 294.452 27.7487 293.861 27.2172C293.27 26.6856 292.974 26.06 292.974 25.3446C292.974 24.3362 293.37 23.3715 294.163 22.4527C294.956 21.5339 296.062 20.8295 297.481 20.3395C298.899 19.8495 300.375 19.6045 301.904 19.6045C303.753 19.6045 305.217 20.0004 306.295 20.7923C307.373 21.5842 308.072 22.4439 308.392 23.3693C308.587 23.9577 308.683 25.3118 308.683 27.4272V35.0595C308.683 35.9564 308.717 36.5208 308.787 36.7527C308.857 36.9846 308.961 37.1552 309.1 37.2668C309.239 37.3783 309.4 37.4352 309.58 37.4352C309.941 37.4352 310.31 37.1771 310.686 36.6564L311.312 37.1618C310.616 38.1987 309.897 38.9534 309.152 39.4215C308.407 39.8918 307.564 40.1259 306.617 40.1259C305.504 40.1259 304.635 39.8634 304.009 39.3362C303.384 38.8112 303.001 38.0149 302.862 36.9496M302.862 35.4139V28.8316C301.178 29.8269 299.927 30.8923 299.106 32.0276C298.563 32.7845 298.293 33.5479 298.293 34.3201C298.293 34.9655 298.523 35.532 298.982 36.0242C299.329 36.4027 299.816 36.593 300.442 36.593C301.137 36.593 301.943 36.2014 302.862 35.4161" fill="#021834"/>
<path d="M321.097 11.3354V35.7704C321.097 37.1573 321.258 38.0454 321.577 38.4304C321.897 38.8155 322.523 39.0364 323.455 39.0933V39.8502H312.919V39.0933C313.782 39.0648 314.421 38.8133 314.838 38.3364C315.116 38.0148 315.255 37.1595 315.255 35.7704V15.4152C315.255 14.0414 315.094 13.1621 314.775 12.777C314.455 12.392 313.836 12.1711 312.917 12.1142V11.3354H321.095H321.097Z" fill="#021834"/>
<path d="M337.664 19.6416L337.977 26.3487H337.268C336.419 24.358 335.541 22.9973 334.629 22.2689C333.718 21.5404 332.81 21.1751 331.906 21.1751C331.335 21.1751 330.848 21.3676 330.446 21.7526C330.042 22.1376 329.84 22.5839 329.84 23.087C329.84 23.4655 329.979 23.8308 330.257 24.1808C330.703 24.7561 331.947 25.7405 333.992 27.1362C336.036 28.5318 337.381 29.7153 338.029 30.691C338.676 31.6644 339 32.756 339 33.9613C339 35.0551 338.728 36.127 338.185 37.1792C337.642 38.2314 336.877 39.0365 335.891 39.5965C334.902 40.1565 333.812 40.4365 332.615 40.4365C331.682 40.4365 330.437 40.1412 328.88 39.5527C328.463 39.3996 328.178 39.3208 328.024 39.3208C327.565 39.3208 327.183 39.6708 326.877 40.373H326.188L325.853 33.3073H326.564C327.189 35.1579 328.048 36.5448 329.14 37.4702C330.231 38.3955 331.265 38.8571 332.239 38.8571C332.906 38.8571 333.451 38.6514 333.877 38.2358C334.3 37.8224 334.513 37.3214 334.513 36.733C334.513 36.0592 334.305 35.4795 333.888 34.9873C333.471 34.4973 332.538 33.7535 331.091 32.7582C328.962 31.2728 327.587 30.1375 326.961 29.3522C326.042 28.2037 325.584 26.9349 325.584 25.5458C325.584 24.0321 326.101 22.6626 327.137 21.4354C328.174 20.2082 329.673 19.5957 331.632 19.5957C332.688 19.5957 333.712 19.856 334.7 20.3745C335.076 20.5845 335.382 20.6895 335.619 20.6895C335.869 20.6895 336.071 20.637 336.223 20.532C336.375 20.427 336.621 20.1295 336.953 19.6373H337.664V19.6416Z" fill="#021834"/>
</g>
<defs>
<clipPath id="clip0_1145_60213">
<rect width="339" height="51" fill="white"/>
</clipPath>
</defs>
</svg>
